<svg width="169" height="114" viewBox="0 0 169 114" fill="none" xmlns="http://www.w3.org/2000/svg">
<path d="M68.7669 111.761L68.817 111.82L68.8754 111.87C69.7643 112.632 70.8411 113 72.0464 113H118.893C134.967 113 147.056 110.576 155.004 105.583L155.007 105.581C163.138 100.435 167.184 92.5349 167.184 82.0539C167.184 75.4499 165.453 69.9699 161.913 65.7013C158.537 61.6301 153.002 58.1658 145.433 55.2503C152.221 51.9979 157.114 48.6024 159.995 45.0263L159.995 45.0263L160.003 45.0158C163.025 41.1607 164.515 36.4883 164.515 31.0566C164.515 21.1329 160.341 13.5898 152.031 8.5605C143.893 3.47677 132.012 1 116.521 1H72.3429C70.99 1 69.8301 1.50298 68.9438 2.50259C68.0588 3.40013 67.6367 4.54594 67.6367 5.85445V108.739C67.6367 109.873 68.0227 110.893 68.7669 111.761ZM103.655 25.7593L103.698 25.7247L103.737 25.6855C103.938 25.4846 104.478 25.2372 105.699 25.2372H117.855C121.217 25.2372 123.944 26.1659 126.11 27.9704C128.247 29.7518 129.308 32.0369 129.308 34.9111C129.308 37.6124 128.376 39.7578 126.524 41.4337C124.673 43.1082 122.165 43.9919 118.893 43.9919H104.809C104.094 43.9919 103.8 43.7975 103.663 43.626C103.489 43.4084 103.289 42.862 103.289 41.7305V27.2022C103.289 26.208 103.524 25.8638 103.655 25.7593ZM126.947 85.6311L126.94 85.6385L126.932 85.646C124.893 87.6857 122.011 88.7628 118.151 88.7628H104.809C104.094 88.7628 103.8 88.5684 103.663 88.3969C103.489 88.1793 103.289 87.6329 103.289 86.5014V70.9353C103.289 69.9699 103.512 69.4955 103.737 69.2705C103.938 69.0695 104.478 68.8221 105.699 68.8221H118.893C122.362 68.8221 125.077 69.7554 127.131 71.5417C129.182 73.3247 130.197 75.5677 130.197 78.3477C130.197 81.1177 129.138 83.5314 126.947 85.6311Z" fill="#0F7DFF" stroke="white" stroke-width="2"/>
<path d="M67.4993 109.437L67.5032 109.445C68.0302 110.617 68.8403 111.527 69.9308 112.133C71.008 112.731 72.2991 113 73.752 113H102.66C103.664 113 104.603 112.795 105.302 112.212C106.036 111.601 106.329 110.724 106.329 109.776C106.329 108.815 106.088 107.874 105.633 106.962C105.632 106.96 105.631 106.959 105.63 106.957L73.3174 40.4042L73.3174 40.4042L73.3122 40.3938C72.9676 39.7046 72.8248 39.1168 72.8248 38.6173C72.8248 38.0126 73.0523 37.3987 73.6151 36.7555L73.6265 36.7426L73.6374 36.7292L97.9204 6.96772C98.5751 6.29482 98.9165 5.46219 98.9165 4.52022C98.9165 3.38433 98.3911 2.47205 97.419 1.89866C96.5087 1.26477 95.357 1 94.062 1H71.5283C69.7864 1 68.3103 1.25023 67.2072 1.85661C66.2209 2.35568 65.275 3.28469 64.3536 4.51321L64.3464 4.52281L64.3395 4.53257L37.0886 42.7431C36.9313 42.9244 36.7942 43.0633 36.6777 43.1673C36.6617 43.018 36.6523 42.8367 36.6523 42.6199V5.11321C36.6523 3.95582 36.4076 2.90117 35.7444 2.12751C35.056 1.32435 34.0712 1 32.9838 1H4.81671C3.68094 1 2.68729 1.39217 1.97302 2.2493L1.97301 2.2493C1.27817 3.08312 1 4.18288 1 5.4097V108.294C1 109.706 1.32265 110.958 2.18238 111.818C3.06329 112.699 4.44251 113 6.0027 113H30.7601C32.52 113 34.0183 112.697 35.0663 111.911L35.0965 111.888L35.1248 111.863C36.2228 110.902 36.6523 109.424 36.6523 107.701V85.3154C36.6523 83.9317 36.9351 83.1317 37.301 82.7047L37.316 82.6872L37.3302 82.6691L47.8486 69.1877C48.2676 68.6764 48.6079 68.3335 48.8712 68.1266C48.9984 68.0266 49.0843 67.977 49.1328 67.9527C49.1338 67.9535 49.1348 67.9542 49.1358 67.955C49.2048 68.0067 49.3126 68.1128 49.4505 68.3092L67.4993 109.437ZM36.7692 43.5879C36.7692 43.5879 36.7688 43.5873 36.7682 43.586C36.7689 43.5872 36.7692 43.5879 36.7692 43.5879Z" fill="#111111" stroke="white" stroke-width="2"/>
</svg>
