<svg width="51" height="84" viewBox="0 0 51 84" fill="none" xmlns="http://www.w3.org/2000/svg">
<path fill-rule="evenodd" clip-rule="evenodd" d="M14.937 2.765C12.307 5.115 11.6 6.521 11.6 9.401C11.6 13.606 14.833 17.472 19.25 18.547C21.784 19.164 22 18.983 22 16.243C22 12.99 25.338 8 27.514 8C32.352 8 27.368 1.23 21.887 0.358002C18.846 -0.125998 17.747 0.254999 14.937 2.765ZM27.229 9.669C25.128 10.515 22.79 16.027 23.438 18.608C24.004 20.864 24.463 21 31.519 21C39.458 21 39.634 20.874 39.132 15.537C38.826 12.27 34.989 8.991 31.576 9.079C29.884 9.122 27.928 9.388 27.229 9.669ZM7.689 23.644C7.31 24.023 7 25.375 7 26.648C7 29.844 8.805 30.12 27.5 29.786L43.5 29.5V26.5V23.5L25.939 23.228C16.28 23.078 8.068 23.265 7.689 23.644ZM6 32.618C6 33.508 4.65 35.774 3 37.653L1.1891e-06 41.07V58.9C1.1891e-06 84.362 -0.0610008 84.307 27.451 83.816L45.169 83.5L48.084 80.234L51 76.968V58.561V40.154L48.192 37.327C46.648 35.772 45.087 33.713 44.723 32.75C44.126 31.168 42.238 31 25.031 31C8.164 31 6 31.184 6 32.618ZM39 37.5C39 38.325 39.752 39 40.671 39C41.59 39 43.165 39.745 44.171 40.655C45.799 42.128 46 44.084 46 58.464C46 70.837 45.668 75.072 44.581 76.559C43.268 78.354 41.829 78.5 25.5 78.5C9.171 78.5 7.732 78.354 6.419 76.559C5.335 75.076 5 70.884 5 58.809C5 44.333 5.169 42.831 7 41C8.1 39.9 9.45 39 10 39C10.55 39 11 38.325 11 37.5C11 36.238 13.222 36 25 36C36.778 36 39 36.238 39 37.5ZM16.315 48.007C13.655 49.079 12 51.965 12 55.531C12 57.462 13.857 60.117 18.748 65.184L25.496 72.174L32.248 65.093C39.124 57.883 40.235 55.177 38.021 51.039C36.524 48.243 31.953 47.009 28.445 48.454C26.093 49.424 24.853 49.4 22.282 48.334C20.512 47.6 18.937 47.029 18.782 47.063C18.627 47.098 17.517 47.523 16.315 48.007Z" fill="white"/>
</svg>
