<svg width="288" height="203" viewBox="0 0 288 203" fill="none" xmlns="http://www.w3.org/2000/svg">
<path d="M247.502 97.44C257.657 101.113 265.613 107.3 271.368 116C277.123 124.507 280 135.043 280 147.61C280 165.397 273.907 179.123 261.72 188.79C249.702 198.263 232.099 203 208.91 203H117V0H203.832C225.497 0 242.085 4.73667 253.595 14.21C265.274 23.6833 271.114 36.54 271.114 52.78C271.114 62.64 268.998 71.4367 264.766 79.17C260.704 86.9033 254.949 92.9933 247.502 97.44ZM157.877 35.38V83.23H198.754C208.91 83.23 216.611 81.2 221.858 77.14C227.105 73.08 229.729 67.0867 229.729 59.16C229.729 51.2333 227.105 45.3367 221.858 41.47C216.611 37.41 208.91 35.38 198.754 35.38H157.877ZM205.863 167.62C216.696 167.62 224.82 165.59 230.237 161.53C235.822 157.47 238.615 151.187 238.615 142.68C238.615 125.86 227.698 117.45 205.863 117.45H157.877V167.62H205.863Z" fill="black"/>
<path d="M255.502 97.44C265.657 101.113 273.613 107.3 279.368 116C285.123 124.507 288 135.043 288 147.61C288 165.397 281.907 179.123 269.72 188.79C257.702 198.263 240.099 203 216.91 203H125V0H211.832C233.497 0 250.085 4.73667 261.595 14.21C273.274 23.6833 279.114 36.54 279.114 52.78C279.114 62.64 276.998 71.4367 272.766 79.17C268.704 86.9033 262.949 92.9933 255.502 97.44ZM165.877 35.38V83.23H206.754C216.91 83.23 224.611 81.2 229.858 77.14C235.105 73.08 237.729 67.0867 237.729 59.16C237.729 51.2333 235.105 45.3367 229.858 41.47C224.611 37.41 216.91 35.38 206.754 35.38H165.877ZM213.863 167.62C224.696 167.62 232.82 165.59 238.237 161.53C243.822 157.47 246.615 151.187 246.615 142.68C246.615 125.86 235.698 117.45 213.863 117.45H165.877V167.62H213.863Z" fill="black" fill-opacity="0.2"/>
<path d="M174.893 203H113.155L73.1504 125.382L56.9547 135.102V203H2V0H56.9547V88.1703C59.7231 82.7088 65.3063 74.0538 73.7041 62.2052L116.2 0H176L112.186 90.9473L174.893 203Z" fill="#FF2ED1"/>
<path d="M172.893 203H111.155L71.1504 125.382L54.9547 135.102V203H0V0H54.9547V88.1703C57.7231 82.7088 63.3063 74.0538 71.7041 62.2052L114.2 0H174L110.186 90.9473L172.893 203Z" fill="#FF2ED1"/>
<path d="M173.893 203H112.155L72.1504 125.382L55.9547 135.102V203H1V0H55.9547V88.1703C58.7231 82.7088 64.3063 74.0538 72.7041 62.2052L115.2 0H175L111.186 90.9473L173.893 203Z" fill="#FF2ED1"/>
<path d="M173.893 203H112.155L72.1504 125.382L55.9547 135.102V203H1V0H55.9547V88.1703C58.7231 82.7088 64.3063 74.0538 72.7041 62.2052L115.2 0H175L111.186 90.9473L173.893 203Z" fill="#FF2ED1"/>
<path d="M180.893 203H119.155L79.1504 125.382L62.9547 135.102V203H8V0H62.9547V88.1703C65.7231 82.7088 71.3063 74.0538 79.7041 62.2052L122.2 0H182L118.186 90.9473L180.893 203Z" fill="#FF2ED1" fill-opacity="0.2"/>
</svg>
